<svg width="100" height="100" viewBox="0 0 100 100" fill="none" xmlns="http://www.w3.org/2000/svg">
<path d="M50 8.33334C26.9876 8.33334 8.33334 26.9876 8.33334 50C8.33334 73.0124 26.9876 91.6667 50 91.6667C73.0124 91.6667 91.6667 73.0124 91.6667 50C91.6667 26.9876 73.0124 8.33334 50 8.33334ZM50 80.914C32.915 80.914 19.086 67.0884 19.086 50C19.086 32.915 32.9116 19.086 50 19.086C67.085 19.086 80.914 32.9116 80.914 50C80.914 67.085 67.0884 80.914 50 80.914ZM50 28.4946C38.1233 28.4946 28.4946 38.1233 28.4946 50C28.4946 61.8767 38.1233 71.5054 50 71.5054C61.8767 71.5054 71.5054 61.8767 71.5054 50C71.5054 38.1233 61.8767 28.4946 50 28.4946ZM50 60.7527C44.0709 60.7527 39.2473 55.9291 39.2473 50C39.2473 44.0709 44.0709 39.2473 50 39.2473C55.9291 39.2473 60.7527 44.0709 60.7527 50C60.7527 55.9291 55.9291 60.7527 50 60.7527Z" fill="#282828"/>
</svg>
