<svg width="142" height="142" viewBox="0 0 142 142" fill="none" xmlns="http://www.w3.org/2000/svg">
<g clip-path="url(#clip0_31_203)">
<path d="M107.545 69.4274L69.0458 107.53C68.2314 108.336 68.2245 109.662 69.0305 110.476L71.9615 113.438C72.7675 114.252 74.0933 114.259 74.9077 113.453L113.407 75.3504C114.222 74.5444 114.229 73.2186 113.423 72.4042L110.492 69.4427C109.686 68.6283 108.36 68.6214 107.545 69.4274ZM84.1586 33.9504C81.7061 36.3777 81.6856 40.3367 84.1128 42.7892C84.7631 43.4462 85.5157 43.9105 86.3336 44.2186L83.6083 54.8664C83.0257 57.1284 80.7078 58.4699 78.4553 57.8413L57.8515 52.1089C58.0358 50.3145 57.4746 48.4517 56.1007 47.0635C53.6735 44.611 49.7144 44.5905 47.262 47.0177C44.8095 49.4449 44.7889 53.4039 47.2162 55.8564C48.5901 57.2446 50.4469 57.8251 52.2432 57.6595L57.7617 78.3215C58.3669 80.5804 56.9923 82.8935 54.7336 83.4434L44.0674 86.0491C43.7677 85.2465 43.3113 84.4707 42.661 83.8136C40.2338 81.3611 36.2748 81.3406 33.8223 83.7678C31.3698 86.195 31.3401 90.1632 33.7673 92.6157C36.1945 95.0682 40.1535 95.0887 42.606 92.6615C42.8466 92.4234 43.0506 92.1482 43.2453 91.8822L67.5956 103.103L103.134 67.9314L92.1657 43.4662C92.4337 43.2742 92.7109 43.0731 92.9516 42.8349C95.404 40.4077 95.4246 36.4487 92.9973 33.9962C90.5701 31.5437 86.6111 31.5232 84.1586 33.9504Z" fill="#282828"/>
</g>
<defs>
<clipPath id="clip0_31_203">
<rect width="100" height="100" fill="white" transform="translate(0 70.3434) rotate(-44.7031)"/>
</clipPath>
</defs>
</svg>
