<svg width="70" height="70" viewBox="0 0 70 70" fill="none" xmlns="http://www.w3.org/2000/svg">
<circle cx="35" cy="35" r="35" fill="#4494B6"/>
<path d="M34.073 35H39.3599C41.8598 35 44.1051 33.1367 44.2504 30.6402C44.2902 29.9618 44.1799 29.2829 43.9272 28.652C43.6745 28.0212 43.2858 27.4538 42.7886 26.9905C43.2136 26.194 43.3959 25.2905 43.3129 24.3916C43.0948 21.9547 40.861 20.1857 38.4132 20.1857H34.073C33.8275 20.1857 33.592 20.2832 33.4183 20.4569C33.2447 20.6305 33.1471 20.866 33.1471 21.1116V34.0741C33.1471 34.3197 33.2447 34.5552 33.4183 34.7289C33.592 34.9025 33.8275 35 34.073 35ZM36.3878 23.4263H38.7025C39.0709 23.4263 39.4241 23.5726 39.6846 23.8331C39.945 24.0936 40.0914 24.4468 40.0914 24.8152C40.0914 25.1835 39.945 25.5368 39.6846 25.7972C39.4241 26.0577 39.0709 26.204 38.7025 26.204H36.3878V23.4263ZM36.3878 28.9817H39.6284C39.9968 28.9817 40.35 29.128 40.6105 29.3885C40.8709 29.649 41.0173 30.0022 41.0173 30.3706C41.0173 30.7389 40.8709 31.0922 40.6105 31.3526C40.35 31.6131 39.9968 31.7594 39.6284 31.7594H36.3878V28.9817ZM27.3094 21.4733C27.1898 21.0994 26.9545 20.7732 26.6374 20.5418C26.3204 20.3104 25.938 20.1857 25.5455 20.1857H24.0826C23.6901 20.1857 23.3077 20.3104 22.9907 20.5418C22.6737 20.7732 22.4384 21.0994 22.3188 21.4733L18.3669 33.827C18.3289 33.9645 18.3231 34.1089 18.35 34.2489C18.3769 34.389 18.4358 34.521 18.5222 34.6345C18.6085 34.748 18.7199 34.8401 18.8476 34.9035C18.9754 34.9669 19.1161 35 19.2587 35H20.7013C20.9038 35 21.1008 34.9337 21.2619 34.8111C21.4231 34.6885 21.5396 34.5164 21.5937 34.3212L22.2846 32.2223H27.3435L28.0344 34.3212C28.0885 34.5164 28.205 34.6885 28.3662 34.8111C28.5274 34.9337 28.7243 35 28.9268 35H30.3694C30.5121 35 30.6529 34.9671 30.7807 34.9037C30.9085 34.8403 31.02 34.7483 31.1064 34.6347C31.1928 34.5212 31.2517 34.3892 31.2787 34.2491C31.3056 34.109 31.2999 33.9645 31.2618 33.827L27.3094 21.4733ZM23.5045 28.5188L24.8141 24.5432L26.1236 28.5188H23.5045ZM51.3972 36.1852L48.7809 33.5637C48.6954 33.4773 48.5937 33.4086 48.4815 33.3617C48.3693 33.3149 48.2489 33.2907 48.1273 33.2907C48.0057 33.2907 47.8853 33.3149 47.7731 33.3617C47.6609 33.4086 47.5591 33.4773 47.4737 33.5637L38.7066 42.3308L35.5001 39.1191C35.4146 39.0326 35.3128 38.964 35.2006 38.9171C35.0884 38.8703 34.968 38.8461 34.8465 38.8461C34.7249 38.8461 34.6045 38.8703 34.4923 38.9171C34.3801 38.964 34.2783 39.0326 34.1928 39.1191L31.5714 41.7406C31.3984 41.9141 31.3013 42.1492 31.3013 42.3942C31.3013 42.6392 31.3984 42.8743 31.5714 43.0478L38.0527 49.5413C38.1382 49.6278 38.24 49.6964 38.3523 49.7433C38.4645 49.7902 38.5849 49.8143 38.7066 49.8143C38.8282 49.8143 38.9486 49.7902 39.0609 49.7433C39.1731 49.6964 39.275 49.6278 39.3605 49.5413L51.3972 37.4924C51.57 37.3187 51.6669 37.0836 51.6667 36.8386C51.6665 36.5935 51.5691 36.3586 51.396 36.1852H51.3972Z" fill="#282828"/>
</svg>
