<svg width="70" height="70" viewBox="0 0 70 70" fill="none" xmlns="http://www.w3.org/2000/svg">
<circle cx="35" cy="35" r="35" fill="#4494B6"/>
<path d="M35 20.4167C25.7943 20.4167 18.3333 26.4779 18.3333 33.9583C18.3333 37.1875 19.7266 40.1432 22.0443 42.4675C21.2305 45.7487 18.5091 48.6719 18.4766 48.7044C18.3333 48.8542 18.2943 49.0755 18.3789 49.2708C18.4635 49.4662 18.6458 49.5833 18.8542 49.5833C23.1706 49.5833 26.4063 47.513 28.0078 46.237C30.1367 47.0378 32.5 47.5 35 47.5C44.2057 47.5 51.6667 41.4388 51.6667 33.9583C51.6667 26.4779 44.2057 20.4167 35 20.4167Z" fill="#282828"/>
</svg>
