<svg width="70" height="70" viewBox="0 0 70 70" fill="none" xmlns="http://www.w3.org/2000/svg">
<circle cx="35" cy="35" r="35" fill="#4494B6"/>
<path d="M27.4225 21.1663C27.3499 21.0935 27.2637 21.0357 27.1687 20.9963C27.0738 20.9568 26.9719 20.9365 26.8691 20.9365C26.7663 20.9365 26.6645 20.9568 26.5695 20.9963C26.4746 21.0357 26.3883 21.0935 26.3157 21.1663L22.1699 25.2881L20.692 23.8479C20.6195 23.7751 20.5332 23.7173 20.4382 23.6779C20.3433 23.6385 20.2415 23.6182 20.1386 23.6182C20.0358 23.6182 19.934 23.6385 19.8391 23.6779C19.7441 23.7173 19.6578 23.7751 19.5853 23.8479L18.5631 24.8714C18.4903 24.944 18.4325 25.0302 18.3931 25.1252C18.3536 25.2201 18.3333 25.322 18.3333 25.4248C18.3333 25.5276 18.3536 25.6294 18.3931 25.7244C18.4325 25.8193 18.4903 25.9056 18.5631 25.9782L21.6614 29.0641C21.8161 29.2111 22.0213 29.2931 22.2347 29.2931C22.4481 29.2931 22.6533 29.2111 22.8079 29.0641L23.8229 28.0472L28.5234 23.3473C28.6699 23.2007 28.7526 23.0023 28.7537 22.7951C28.7548 22.5879 28.6742 22.3886 28.5293 22.2405L27.4225 21.1663ZM27.4225 31.5302C27.3499 31.4574 27.2637 31.3996 27.1687 31.3602C27.0738 31.3208 26.9719 31.3005 26.8691 31.3005C26.7663 31.3005 26.6645 31.3208 26.5695 31.3602C26.4746 31.3996 26.3883 31.4574 26.3157 31.5302L22.1699 35.6787L20.692 34.2399C20.6195 34.1671 20.5332 34.1093 20.4382 34.0698C20.3433 34.0304 20.2415 34.0101 20.1386 34.0101C20.0358 34.0101 19.934 34.0304 19.8391 34.0698C19.7441 34.1093 19.6578 34.1671 19.5853 34.2399L18.5631 35.2614C18.4903 35.334 18.4325 35.4202 18.3931 35.5152C18.3536 35.6101 18.3333 35.7119 18.3333 35.8148C18.3333 35.9176 18.3536 36.0194 18.3931 36.1144C18.4325 36.2093 18.4903 36.2956 18.5631 36.3681L21.6536 39.4606C21.8082 39.6076 22.0133 39.6895 22.2265 39.6895C22.4398 39.6895 22.6449 39.6076 22.7995 39.4606L23.8216 38.4391L28.5221 33.7373C28.668 33.5917 28.7505 33.3944 28.7516 33.1884C28.7527 32.9823 28.6723 32.7841 28.528 32.637L27.4225 31.5302ZM22.5 42.8135C20.7754 42.8135 19.3366 44.2132 19.3366 45.9385C19.3366 47.6637 20.7767 49.0635 22.5 49.0635C23.3288 49.0635 24.1236 48.7342 24.7097 48.1482C25.2957 47.5621 25.625 46.7673 25.625 45.9385C25.625 45.1097 25.2957 44.3148 24.7097 43.7288C24.1236 43.1427 23.3288 42.8135 22.5 42.8135ZM50.625 43.8551H31.875C31.5987 43.8551 31.3338 43.9649 31.1384 44.1602C30.9431 44.3556 30.8333 44.6205 30.8333 44.8968V46.9801C30.8333 47.2564 30.9431 47.5214 31.1384 47.7167C31.3338 47.9121 31.5987 48.0218 31.875 48.0218H50.625C50.9013 48.0218 51.1662 47.9121 51.3616 47.7167C51.5569 47.5214 51.6667 47.2564 51.6667 46.9801V44.8968C51.6667 44.6205 51.5569 44.3556 51.3616 44.1602C51.1662 43.9649 50.9013 43.8551 50.625 43.8551ZM50.625 23.0218H31.875C31.5987 23.0218 31.3338 23.1315 31.1384 23.3269C30.9431 23.5222 30.8333 23.7872 30.8333 24.0634V26.1468C30.8333 26.423 30.9431 26.688 31.1384 26.8834C31.3338 27.0787 31.5987 27.1884 31.875 27.1884H50.625C50.9013 27.1884 51.1662 27.0787 51.3616 26.8834C51.5569 26.688 51.6667 26.423 51.6667 26.1468V24.0634C51.6667 23.7872 51.5569 23.5222 51.3616 23.3269C51.1662 23.1315 50.9013 23.0218 50.625 23.0218V23.0218ZM50.625 33.4385H31.875C31.5987 33.4385 31.3338 33.5482 31.1384 33.7436C30.9431 33.9389 30.8333 34.2039 30.8333 34.4801V36.5635C30.8333 36.8397 30.9431 37.1047 31.1384 37.3C31.3338 37.4954 31.5987 37.6051 31.875 37.6051H50.625C50.9013 37.6051 51.1662 37.4954 51.3616 37.3C51.5569 37.1047 51.6667 36.8397 51.6667 36.5635V34.4801C51.6667 34.2039 51.5569 33.9389 51.3616 33.7436C51.1662 33.5482 50.9013 33.4385 50.625 33.4385Z" fill="#282828"/>
</svg>
