<svg width="342" height="348" viewBox="0 0 342 348" fill="none" xmlns="http://www.w3.org/2000/svg">
<circle cx="172" cy="175" r="150" fill="#282828"/>
<path d="M218.279 242.678C217.572 241.97 217.94 242.17 216.235 241.713C215.461 241.506 214.78 241.107 214.165 240.629L210.473 249.682C210.116 250.558 210.783 251.51 211.729 251.475L216.016 251.311L218.966 254.426C219.617 255.113 220.759 254.899 221.116 254.023L225.352 243.637C224.47 244.129 223.491 244.417 222.479 244.417C220.892 244.417 219.401 243.799 218.279 242.678V242.678ZM241.527 249.682L237.835 240.629C237.22 241.108 236.539 241.506 235.765 241.713C234.051 242.172 234.427 241.972 233.721 242.678C232.599 243.799 231.107 244.417 229.52 244.417C228.508 244.417 227.529 244.128 226.647 243.637L230.883 254.023C231.24 254.899 232.383 255.113 233.034 254.426L235.984 251.311L240.271 251.475C241.217 251.51 241.884 250.558 241.527 249.682V249.682ZM231.778 240.836C233.021 239.571 233.164 239.68 234.935 239.197C236.065 238.889 236.949 237.989 237.251 236.839C237.86 234.528 237.702 234.807 239.363 233.116C240.191 232.273 240.514 231.045 240.211 229.895C239.603 227.585 239.602 227.907 240.211 225.595C240.514 224.445 240.191 223.217 239.363 222.374C237.702 220.683 237.86 220.962 237.251 218.651C236.949 217.501 236.065 216.601 234.935 216.293C232.666 215.674 232.939 215.836 231.277 214.144C230.449 213.302 229.242 212.972 228.112 213.28C225.844 213.899 226.16 213.9 223.888 213.28C222.758 212.972 221.551 213.301 220.723 214.144C219.062 215.835 219.336 215.674 217.066 216.293C215.936 216.601 215.052 217.501 214.749 218.651C214.142 220.962 214.299 220.683 212.638 222.374C211.81 223.217 211.486 224.445 211.79 225.595C212.398 227.903 212.398 227.581 211.79 229.894C211.487 231.045 211.81 232.273 212.638 233.116C214.299 234.807 214.141 234.528 214.749 236.839C215.052 237.989 215.936 238.889 217.066 239.197C218.888 239.693 219.023 239.615 220.222 240.836C221.299 241.932 222.976 242.128 224.27 241.31C224.787 240.981 225.388 240.807 226 240.807C226.613 240.807 227.214 240.981 227.731 241.31C229.024 242.128 230.701 241.932 231.778 240.836ZM218.323 227.487C218.323 223.171 221.76 219.673 226 219.673C230.24 219.673 233.677 223.171 233.677 227.487C233.677 231.802 230.24 235.301 226 235.301C221.76 235.301 218.323 231.802 218.323 227.487V227.487Z" fill="#4494B6"/>
<circle cx="317" cy="192" r="25" fill="#FF0000"/>
<path d="M320.791 192L326.477 186.314C327.174 185.616 327.174 184.485 326.477 183.787L325.213 182.523C324.515 181.826 323.384 181.826 322.686 182.523L317 188.209L311.314 182.523C310.616 181.826 309.485 181.826 308.787 182.523L307.523 183.787C306.826 184.485 306.826 185.616 307.523 186.314L313.209 192L307.523 197.686C306.826 198.384 306.826 199.515 307.523 200.213L308.787 201.477C309.485 202.174 310.616 202.174 311.314 201.477L317 195.791L322.686 201.477C323.384 202.174 324.515 202.174 325.213 201.477L326.477 200.213C327.174 199.515 327.174 198.384 326.477 197.686L320.791 192Z" fill="#181818"/>
<circle cx="176" cy="323" r="25" fill="white"/>
<path d="M242.667 103.778V148.222H247.111C247.7 148.222 248.266 148.456 248.682 148.873C249.099 149.29 249.333 149.855 249.333 150.444V154.889C249.333 155.478 249.099 156.043 248.682 156.46C248.266 156.877 247.7 157.111 247.111 157.111H224.889C224.3 157.111 223.734 156.877 223.318 156.46C222.901 156.043 222.667 155.478 222.667 154.889V150.444C222.667 149.855 222.901 149.29 223.318 148.873C223.734 148.456 224.3 148.222 224.889 148.222H229.333V130.444H202.667V148.222H207.111C207.7 148.222 208.266 148.456 208.682 148.873C209.099 149.29 209.333 149.855 209.333 150.444V154.889C209.333 155.478 209.099 156.043 208.682 156.46C208.266 156.877 207.7 157.111 207.111 157.111H184.889C184.3 157.111 183.734 156.877 183.318 156.46C182.901 156.043 182.667 155.478 182.667 154.889V150.444C182.667 149.855 182.901 149.29 183.318 148.873C183.734 148.456 184.3 148.222 184.889 148.222H189.333V103.778H184.889C184.3 103.778 183.734 103.544 183.318 103.127C182.901 102.71 182.667 102.145 182.667 101.556V97.1111C182.667 96.5217 182.901 95.9565 183.318 95.5398C183.734 95.123 184.3 94.8889 184.889 94.8889H207.111C207.7 94.8889 208.266 95.123 208.682 95.5398C209.099 95.9565 209.333 96.5217 209.333 97.1111V101.556C209.333 102.145 209.099 102.71 208.682 103.127C208.266 103.544 207.7 103.778 207.111 103.778H202.667V121.556H229.333V103.778H224.889C224.3 103.778 223.734 103.544 223.318 103.127C222.901 102.71 222.667 102.145 222.667 101.556V97.1111C222.667 96.5217 222.901 95.9565 223.318 95.5398C223.734 95.123 224.3 94.8889 224.889 94.8889H247.111C247.7 94.8889 248.266 95.123 248.682 95.5398C249.099 95.9565 249.333 96.5217 249.333 97.1111V101.556C249.333 102.145 249.099 102.71 248.682 103.127C248.266 103.544 247.7 103.778 247.111 103.778H242.667Z" fill="#4494B6"/>
<path d="M185.448 320.788L176.731 318.109C176.256 317.963 175.744 317.963 175.269 318.109L166.552 320.788C165.816 321.013 165.816 321.986 166.552 322.212L168.071 322.679C167.738 323.091 167.533 323.594 167.513 324.145C167.212 324.317 167 324.628 167 325C167 325.337 167.177 325.62 167.433 325.802L166.635 329.392C166.566 329.704 166.803 330 167.123 330H168.876C169.196 330 169.434 329.704 169.365 329.392L168.567 325.802C168.822 325.62 169 325.337 169 325C169 324.638 168.798 324.336 168.51 324.16C168.534 323.691 168.774 323.276 169.157 323.013L175.269 324.891C175.552 324.978 176.095 325.086 176.731 324.891L185.448 322.213C186.184 321.986 186.184 321.014 185.448 320.788V320.788ZM177.025 325.847C176.133 326.12 175.373 325.969 174.975 325.847L170.443 324.454L170 328C170 329.105 172.686 330 176 330C179.314 330 182 329.105 182 328L181.557 324.454L177.025 325.847V325.847Z" fill="black"/>
<path d="M126 190.333C102.988 190.333 84.3333 208.988 84.3333 232C84.3333 255.012 102.988 273.667 126 273.667C149.012 273.667 167.667 255.012 167.667 232C167.667 208.988 149.012 190.333 126 190.333ZM139.826 250.414C139.17 251.066 138.483 251.75 137.925 252.309C137.423 252.813 137.069 253.435 136.889 254.109C136.635 255.059 136.43 256.02 136.087 256.943L133.166 264.814C130.854 265.318 128.461 265.602 126 265.602V261.002C126.284 258.882 124.716 254.91 122.198 252.391C121.19 251.383 120.624 250.016 120.624 248.589V243.211C120.624 241.256 119.57 239.458 117.858 238.512C115.444 237.176 112.01 235.31 109.658 234.125C107.729 233.154 105.945 231.918 104.34 230.471L104.206 230.35C103.058 229.314 102.04 228.144 101.171 226.866C99.5954 224.552 97.0282 220.747 95.3599 218.274C98.7991 210.629 104.997 204.49 112.699 201.155L116.733 203.173C118.52 204.067 120.624 202.768 120.624 200.768V198.87C121.966 198.653 123.332 198.515 124.721 198.463L129.476 203.218C130.526 204.268 130.526 205.97 129.476 207.02L128.688 207.806L126.951 209.544C126.427 210.068 126.427 210.92 126.951 211.444L127.739 212.232C128.263 212.756 128.263 213.608 127.739 214.132L126.395 215.476C126.142 215.728 125.8 215.869 125.444 215.869H123.933C123.584 215.869 123.248 216.005 122.996 216.251L121.329 217.872C121.125 218.071 120.989 218.33 120.941 218.611C120.894 218.892 120.937 219.181 121.064 219.436L123.683 224.676C124.13 225.57 123.48 226.622 122.482 226.622H121.534C121.21 226.622 120.898 226.504 120.654 226.293L119.095 224.939C118.742 224.632 118.316 224.423 117.857 224.332C117.399 224.241 116.925 224.27 116.482 224.418L111.245 226.163C110.845 226.297 110.498 226.552 110.251 226.894C110.005 227.236 109.873 227.647 109.873 228.069C109.873 228.83 110.303 229.524 110.983 229.865L112.845 230.795C114.426 231.587 116.17 231.998 117.937 231.998C119.705 231.998 121.733 236.583 123.314 237.375H134.528C135.955 237.375 137.321 237.941 138.33 238.949L140.63 241.249C141.591 242.21 142.131 243.514 142.131 244.873C142.13 245.903 141.927 246.923 141.531 247.873C141.135 248.824 140.556 249.688 139.826 250.414V250.414ZM154.394 235.066C153.421 234.823 152.573 234.226 152.016 233.391L148.996 228.86C148.554 228.198 148.318 227.42 148.318 226.624C148.318 225.828 148.554 225.049 148.996 224.387L152.287 219.451C152.677 218.868 153.211 218.394 153.839 218.082L156.02 216.992C158.292 221.514 159.602 226.602 159.602 232C159.602 233.457 159.478 234.883 159.296 236.291L154.394 235.066Z" fill="#4494B6"/>
<path d="M117.213 107.481C115.05 107.481 113.256 108.964 112.742 110.968C112.685 110.968 112.641 110.954 112.583 110.954C110.03 110.954 107.954 113.03 107.954 115.583C107.954 115.931 107.997 116.271 108.077 116.596C105.964 117.464 104.481 119.533 104.481 121.949C104.481 122.861 104.713 123.707 105.082 124.474C103.346 125.472 102.167 127.324 102.167 129.472C102.167 131.881 103.642 133.95 105.74 134.818C105.675 135.151 105.639 135.491 105.639 135.838C105.639 138.717 107.968 141.046 110.847 141.046C111.144 141.046 111.433 141.01 111.715 140.959C112.41 143.021 114.334 144.519 116.634 144.519C119.513 144.519 121.843 142.189 121.843 139.31V112.111C121.843 109.558 119.766 107.481 117.213 107.481ZM143.833 129.472C143.833 127.324 142.654 125.472 140.918 124.474C141.294 123.707 141.519 122.861 141.519 121.949C141.519 119.533 140.036 117.464 137.923 116.596C137.996 116.271 138.046 115.931 138.046 115.583C138.046 113.03 135.97 110.954 133.417 110.954C133.359 110.954 133.308 110.968 133.258 110.968C132.744 108.964 130.95 107.481 128.787 107.481C126.234 107.481 124.157 109.55 124.157 112.111V139.31C124.157 142.189 126.487 144.519 129.366 144.519C131.666 144.519 133.59 143.021 134.285 140.959C134.567 141.01 134.856 141.046 135.153 141.046C138.032 141.046 140.361 138.717 140.361 135.838C140.361 135.491 140.325 135.151 140.26 134.818C142.358 133.95 143.833 131.881 143.833 129.472Z" fill="#4494B6"/>
<circle cx="176" cy="25" r="25" fill="#DD9B37"/>
<path d="M185.167 18.3333H181.556V16.9444C181.556 16.4826 181.184 16.1111 180.722 16.1111H171.278C170.816 16.1111 170.444 16.4826 170.444 16.9444V18.3333H166.833C166.372 18.3333 166 18.7049 166 19.1667V21.1111C166 22.3507 166.781 23.625 168.149 24.6076C169.243 25.3958 170.573 25.8958 171.969 26.0556C173.059 27.8646 174.333 28.6111 174.333 28.6111V31.1111H172.667C171.441 31.1111 170.444 31.8299 170.444 33.0556V33.4722C170.444 33.7014 170.632 33.8889 170.861 33.8889H181.139C181.368 33.8889 181.556 33.7014 181.556 33.4722V33.0556C181.556 31.8299 180.559 31.1111 179.333 31.1111H177.667V28.6111C177.667 28.6111 178.941 27.8646 180.031 26.0556C181.431 25.8958 182.76 25.3958 183.851 24.6076C185.215 23.625 186 22.3507 186 21.1111V19.1667C186 18.7049 185.628 18.3333 185.167 18.3333ZM169.448 22.8056C168.601 22.1944 168.222 21.5139 168.222 21.1111V20.5556H170.451C170.486 21.6875 170.653 22.6806 170.896 23.5486C170.372 23.3681 169.882 23.1181 169.448 22.8056V22.8056ZM183.778 21.1111C183.778 21.6701 183.163 22.3646 182.552 22.8056C182.118 23.1181 181.625 23.3681 181.101 23.5486C181.344 22.6806 181.51 21.6875 181.545 20.5556H183.778V21.1111Z" fill="#282828"/>
<circle cx="25" cy="155" r="25" fill="#30B501"/>
<path d="M21.7929 162.164L15.2929 155.664C14.9024 155.274 14.9024 154.641 15.2929 154.25L16.7071 152.836C17.0976 152.445 17.7308 152.445 18.1213 152.836L22.5 157.214L31.8787 147.836C32.2692 147.445 32.9024 147.445 33.2929 147.836L34.7071 149.25C35.0976 149.64 35.0976 150.274 34.7071 150.664L23.2071 162.164C22.8166 162.555 22.1834 162.555 21.7929 162.164V162.164Z" fill="#181818"/>
</svg>
