<svg width="100" height="100" viewBox="0 0 100 100" fill="none" xmlns="http://www.w3.org/2000/svg">
<circle cx="50" cy="50" r="50" fill="#282828"/>
<path d="M38.4933 66.8329H29.8549V39.0148H38.4933V66.8329ZM34.1695 35.2201C31.4072 35.2201 29.1667 32.9322 29.1667 30.1699C29.1667 28.8431 29.6937 27.5706 30.632 26.6324C31.5702 25.6942 32.8426 25.1671 34.1695 25.1671C35.4963 25.1671 36.7688 25.6942 37.707 26.6324C38.6452 27.5706 39.1723 28.8431 39.1723 30.1699C39.1723 32.9322 36.9308 35.2201 34.1695 35.2201ZM70.824 66.8329H62.2042V53.2912C62.2042 50.0639 62.1391 45.9251 57.713 45.9251C53.2217 45.9251 52.5335 49.4314 52.5335 53.0587V66.8329H43.9044V39.0148H52.1894V42.8094H52.3103C53.4635 40.6238 56.2807 38.3172 60.4836 38.3172C69.2262 38.3172 70.8333 44.0743 70.8333 51.552V66.8329H70.824Z" fill="#4494B6"/>
</svg>
