<svg width="142" height="142" viewBox="0 0 142 142" fill="none" xmlns="http://www.w3.org/2000/svg">
<g clip-path="url(#clip0_31_154)">
<path d="M54.3297 58.1458L33.9288 50.27C33.0898 49.9459 32.1811 49.8446 31.2912 49.9761C30.4014 50.1075 29.5608 50.4671 28.8513 51.02L14.5811 62.1393C12.9185 63.4348 13.4029 66.0637 15.4169 66.6836L45.6047 75.9606C46.6423 69.4222 49.5885 63.1937 54.3297 58.1458ZM76.199 14.1266L61.9288 25.246C60.4858 26.3704 59.7382 28.1703 59.9605 29.9862L62.6106 51.6933C68.6643 48.3299 75.424 46.9955 82.0168 47.5863L80.4012 16.0479C80.2924 13.9434 77.8616 12.8311 76.199 14.1266ZM61.3963 58.6749C48.9171 68.3986 46.6833 86.3986 56.4071 98.8778C66.1308 111.357 84.1308 113.591 96.61 103.867C109.089 94.1432 111.323 76.1433 101.599 63.6641C91.8754 51.1849 73.8755 48.9511 61.3963 58.6749ZM89.0067 69.6094L87.8345 78.149L94.2101 83.956C95.3519 84.9977 94.8013 86.902 93.282 87.1739L84.7934 88.702L81.238 96.5585C80.6047 97.9702 78.6208 98.0325 77.8909 96.672L73.8185 89.0703L65.2513 88.1196C63.7115 87.9493 63.0361 86.0842 64.1068 84.9692L70.0739 78.7433L68.3281 70.2985C68.1708 69.5379 68.4836 68.8588 69.0087 68.4497C69.5363 68.0385 70.2781 67.9021 70.9742 68.2367L78.7361 71.9937L86.2317 67.7295C87.5746 66.9638 89.2181 68.0746 89.0067 69.6094V69.6094Z" fill="#282828"/>
</g>
<defs>
<clipPath id="clip0_31_154">
<rect width="100" height="100" fill="white" transform="translate(0.827637 62.2915) rotate(-37.9257)"/>
</clipPath>
</defs>
</svg>
