<svg width="20" height="20" viewBox="0 0 20 20" fill="none" xmlns="http://www.w3.org/2000/svg">
<path d="M18.3333 10C18.3333 14.6034 14.602 18.3333 9.99996 18.3333C5.39791 18.3333 1.66663 14.6034 1.66663 10C1.66663 5.3993 5.39791 1.66667 9.99996 1.66667C14.602 1.66667 18.3333 5.3993 18.3333 10ZM9.99996 11.6801C9.1463 11.6801 8.45426 12.3721 8.45426 13.2258C8.45426 14.0795 9.1463 14.7715 9.99996 14.7715C10.8536 14.7715 11.5457 14.0795 11.5457 13.2258C11.5457 12.3721 10.8536 11.6801 9.99996 11.6801ZM8.53245 6.12413L8.78171 10.694C8.79337 10.9079 8.97019 11.0753 9.18433 11.0753H10.8156C11.0297 11.0753 11.2065 10.9079 11.2182 10.694L11.4675 6.12413C11.4801 5.89315 11.2962 5.69893 11.0648 5.69893H8.93504C8.70372 5.69893 8.51985 5.89315 8.53245 6.12413V6.12413Z" fill="#4494B6"/>
</svg>
