<svg width="150" height="60" viewBox="0 0 150 60" fill="none" xmlns="http://www.w3.org/2000/svg">
<path d="M70.125 25.5682V15.5455H74.9659V33H70.3182V29.8295H70.1364C69.7424 30.8523 69.0871 31.6742 68.1705 32.2955C67.2614 32.9167 66.1515 33.2273 64.8409 33.2273C63.6742 33.2273 62.6477 32.9621 61.7614 32.4318C60.875 31.9015 60.1818 31.1477 59.6818 30.1705C59.1894 29.1932 58.9394 28.0227 58.9318 26.6591V15.5455H63.7727V25.7955C63.7803 26.8258 64.0568 27.6402 64.6023 28.2386C65.1477 28.8371 65.8788 29.1364 66.7955 29.1364C67.3788 29.1364 67.9242 29.0038 68.4318 28.7386C68.9394 28.4659 69.3485 28.0644 69.6591 27.5341C69.9773 27.0038 70.1326 26.3485 70.125 25.5682ZM78.8381 33V15.5455H83.679V33H78.8381ZM81.2699 13.2955C80.5502 13.2955 79.9328 13.0568 79.4176 12.5795C78.91 12.0947 78.6562 11.5152 78.6562 10.8409C78.6562 10.1742 78.91 9.60227 79.4176 9.125C79.9328 8.64015 80.5502 8.39773 81.2699 8.39773C81.9896 8.39773 82.6032 8.64015 83.1108 9.125C83.6259 9.60227 83.8835 10.1742 83.8835 10.8409C83.8835 11.5152 83.6259 12.0947 83.1108 12.5795C82.6032 13.0568 81.9896 13.2955 81.2699 13.2955ZM87.4659 33V30.1136L96.0114 19.5341V19.4091H87.7614V15.5455H101.841V18.6932L93.8182 29.0114V29.1364H102.136V33H87.4659ZM105.747 33V30.1136L114.293 19.5341V19.4091H106.043V15.5455H120.122V18.6932L112.099 29.0114V29.1364H120.418V33H105.747ZM131.506 33.3409C129.741 33.3409 128.214 32.9659 126.926 32.2159C125.646 31.4583 124.657 30.4053 123.96 29.0568C123.263 27.7008 122.915 26.1288 122.915 24.3409C122.915 22.5379 123.263 20.9621 123.96 19.6136C124.657 18.2576 125.646 17.2045 126.926 16.4545C128.214 15.697 129.741 15.3182 131.506 15.3182C133.271 15.3182 134.794 15.697 136.074 16.4545C137.362 17.2045 138.354 18.2576 139.051 19.6136C139.748 20.9621 140.097 22.5379 140.097 24.3409C140.097 26.1288 139.748 27.7008 139.051 29.0568C138.354 30.4053 137.362 31.4583 136.074 32.2159C134.794 32.9659 133.271 33.3409 131.506 33.3409ZM131.528 29.5909C132.331 29.5909 133.002 29.3636 133.54 28.9091C134.078 28.447 134.483 27.8182 134.756 27.0227C135.036 26.2273 135.176 25.322 135.176 24.3068C135.176 23.2917 135.036 22.3864 134.756 21.5909C134.483 20.7955 134.078 20.1667 133.54 19.7045C133.002 19.2424 132.331 19.0114 131.528 19.0114C130.718 19.0114 130.036 19.2424 129.483 19.7045C128.938 20.1667 128.525 20.7955 128.244 21.5909C127.972 22.3864 127.835 23.2917 127.835 24.3068C127.835 25.322 127.972 26.2273 128.244 27.0227C128.525 27.8182 128.938 28.447 129.483 28.9091C130.036 29.3636 130.718 29.5909 131.528 29.5909Z" fill="white"/>
<circle cx="55" cy="50" r="10" fill="#49B3E0"/>
<path fill-rule="evenodd" clip-rule="evenodd" d="M25 50C38.8071 50 50 38.8071 50 25C50 11.1929 38.8071 0 25 0C11.1929 0 0 11.1929 0 25C0 38.8071 11.1929 50 25 50ZM25 40C33.2843 40 40 33.2843 40 25C40 16.7157 33.2843 10 25 10C16.7157 10 10 16.7157 10 25C10 33.2843 16.7157 40 25 40Z" fill="#49B3E0"/>
</svg>
