<svg width="100" height="100" viewBox="0 0 100 100" fill="none" xmlns="http://www.w3.org/2000/svg">
<circle cx="50" cy="50" r="50" fill="#282828"/>
<path d="M66.5504 41.5133C66.5769 41.8834 66.5769 42.2536 66.5769 42.6237C66.5769 53.9128 57.9845 66.9205 42.2801 66.9205C37.4419 66.9205 32.9474 65.5192 29.1667 63.087C29.8541 63.1663 30.515 63.1927 31.2289 63.1927C35.221 63.1927 38.896 61.8444 41.8306 59.5443C38.0764 59.4649 34.9302 57.0062 33.8462 53.622C34.375 53.7013 34.9038 53.7542 35.459 53.7542C36.2257 53.7542 36.9925 53.6484 37.7063 53.4634C33.7934 52.6702 30.8587 49.2333 30.8587 45.0824V44.9767C31.9955 45.6113 33.3175 46.0078 34.7186 46.0606C32.4185 44.5272 30.9116 41.9098 30.9116 38.9487C30.9116 37.3624 31.3345 35.9083 32.0748 34.6393C36.2785 39.8212 42.5973 43.2052 49.6827 43.5754C49.5505 42.9409 49.4712 42.28 49.4712 41.6191C49.4712 36.913 53.2783 33.0795 58.0108 33.0795C60.4695 33.0795 62.6903 34.1106 64.2502 35.7762C66.1802 35.4061 68.0308 34.6922 69.6701 33.714C69.0355 35.6969 67.6872 37.3625 65.9158 38.42C67.6344 38.235 69.3 37.759 70.8333 37.0981C69.6702 38.7901 68.2161 40.297 66.5504 41.5133V41.5133Z" fill="#4494B6"/>
</svg>
