<svg width="100" height="100" viewBox="0 0 100 100" fill="none" xmlns="http://www.w3.org/2000/svg">
<circle cx="50" cy="50" r="50" fill="#282828"/>
<path d="M64.5926 35.2214C60.6957 31.3151 55.506 29.1667 49.9907 29.1667C38.6068 29.1667 29.3434 38.4301 29.3434 49.814C29.3434 53.4505 30.292 57.0034 32.0964 60.1377L29.1667 70.8334L40.1135 67.9595C43.1269 69.6057 46.5216 70.4706 49.9814 70.4706H49.9907C61.3653 70.4706 70.8333 61.2072 70.8333 49.8233C70.8333 44.3081 68.4896 39.1276 64.5926 35.2214V35.2214ZM49.9907 66.9922C46.9029 66.9922 43.8802 66.1645 41.2481 64.602L40.625 64.2299L34.1332 65.9319L35.8631 59.5982L35.4539 58.9472C33.7333 56.2128 32.8311 53.0599 32.8311 49.814C32.8311 40.3553 40.532 32.6544 50 32.6544C54.5852 32.6544 58.8914 34.4401 62.128 37.686C65.3646 40.9319 67.3549 45.2381 67.3456 49.8233C67.3456 59.2913 59.4494 66.9922 49.9907 66.9922V66.9922ZM59.4029 54.1388C58.8914 53.8784 56.3523 52.6321 55.878 52.4647C55.4036 52.288 55.0595 52.2043 54.7154 52.7251C54.3713 53.2459 53.3854 54.3992 53.0785 54.7526C52.7809 55.0967 52.474 55.1433 51.9624 54.8828C48.9304 53.3668 46.9401 52.1764 44.9405 48.7444C44.4103 47.833 45.4706 47.8981 46.4565 45.9264C46.6239 45.5822 46.5402 45.2846 46.41 45.0242C46.2798 44.7638 45.2474 42.2247 44.8196 41.1924C44.401 40.1879 43.9732 40.3274 43.657 40.3088C43.3594 40.2902 43.0153 40.2902 42.6711 40.2902C42.327 40.2902 41.769 40.4204 41.2946 40.9319C40.8203 41.4528 39.4903 42.6991 39.4903 45.2381C39.4903 47.7772 41.3411 50.2325 41.5923 50.5767C41.8527 50.9208 45.2288 56.1291 50.4092 58.3706C53.683 59.7842 54.9665 59.9052 56.6034 59.6633C57.5986 59.5145 59.654 58.4171 60.0818 57.208C60.5097 55.9989 60.5097 54.9665 60.3795 54.7526C60.2586 54.5201 59.9144 54.3899 59.4029 54.1388Z" fill="#4494B6"/>
</svg>
